<svg xmlns="http://www.w3.org/2000/svg" width="2000" height="2000" viewBox="0 0 2000 2000">
  <g>
    <g>
      <path d="M1574.117,951.8v1.37a636.217,636.217,0,0,1-13.487,129.307q-1.061,5.07-2.212,10.107a627.734,627.734,0,0,1-44.21,128.51q-2.376,5.088-4.874,10.107a629.125,629.125,0,0,1-39.011,68.253q-3.353,5.086-6.794,10.106a637.074,637.074,0,0,1-168.723,167.657q-5.021,3.386-10.107,6.67a627.594,627.594,0,0,1-62.4,35.609q-5.021,2.51-10.107,4.907a628.5,628.5,0,0,1-147.589,48.927q-5.037.995-10.107,1.92a637.327,637.327,0,0,1-109.027,10.219c-1.684.011-3.368.022-5.053.022s-3.369-.011-5.053-.022a631.668,631.668,0,0,1-227.195-43.9q-12.2-4.8-24.155-10.107a635.921,635.921,0,0,1-266.7-221.906q-3.453-5.019-6.805-10.106a631.4,631.4,0,0,1-61.74-120.212q-1.937-5.037-3.784-10.107a628.936,628.936,0,0,1-31.634-125.411q-.741-5.035-1.392-10.106a640.76,640.76,0,0,1-5.233-81.818q0-15.582.741-30.983.253-5.07.562-10.106a629.787,629.787,0,0,1,53.4-216.819q2.241-5.07,4.593-10.107A635.693,635.693,0,0,1,514.165,482.862q5.625-5.121,11.386-10.107a632.591,632.591,0,0,1,231.362-127.69q5.035-1.517,10.106-2.954a632.907,632.907,0,0,1,151.149-23.638q5.037-.168,10.107-.269c4.031-.079,8.085-.113,12.139-.113a631.212,631.212,0,0,1,414.863,154.664q5.76,4.986,11.386,10.107A635.725,635.725,0,0,1,1514.825,683.78q2.341,5.037,4.593,10.107a626.317,626.317,0,0,1,31.465,87.309q1.416,5.037,2.729,10.107a633.474,633.474,0,0,1,20.438,151.755Q1574.118,947.42,1574.117,951.8Z" fill="#ebedfc"/>
      <path d="M1355.277,472.755H525.551q-5.76,4.986-11.386,10.107h852.5Q1361.038,477.741,1355.277,472.755ZM1514.825,683.78H366.014q-2.342,5.037-4.593,10.107h1158Q1517.179,688.817,1514.825,683.78Z" fill="#fff"/>
      <path d="M315.65,1531.461v10.107h10.106v-10.107Zm-7.625-620.755q-.3,5.035-.562,10.106H700.08v610.649H684.011q11.96,5.307,24.155,10.107h2.021V910.706Z" fill="#fff"/>
      <path d="M935.361,844.631v740.833c1.684.011,3.369.022,5.053.022s3.369-.011,5.053-.022V854.738h109.027v720.507q5.072-.925,10.107-1.92V844.631Z" fill="#fff"/>
      <path d="M1574.05,943.058H1208.473V791.3h345.139q-1.314-5.071-2.729-10.107H1198.367V953.165h375.75V951.8Q1574.117,947.415,1574.05,943.058Z" fill="#fff"/>
      <path d="M1212.19,1069.356V1524.4q5.088-2.392,10.107-4.907V1079.463h62.4v404.419q5.086-3.285,10.107-6.67V1069.356Z" fill="#fff"/>
      <path d="M1558.418,1092.579q1.146-5.037,2.212-10.107H1374.109V1231.2h135.225q2.493-5.021,4.874-10.107H1384.215v-128.51Z" fill="#fff"/>
      <path d="M315.65,1531.461v10.107h10.106v-10.107Zm94.855-232.012q3.353,5.086,6.805,10.106H1463.529q3.453-5.019,6.794-10.106Z" fill="#fff"/>
      <path d="M311.955,1033.613q.657,5.07,1.392,10.106H841.179V1169.13h-496.2q1.853,5.07,3.784,10.107h502.52V1033.613Z" fill="#fff"/>
      <path d="M918.168,318.473V762.566H767.019V342.111q-5.07,1.433-10.106,2.954V772.673H928.275V318.2Q923.205,318.3,918.168,318.473Z" fill="#fff"/>
    </g>
    <g>
      <path d="M758.64,1703.361l-10.19,2.429a8.732,8.732,0,0,1-10.453-6.6l-70.583-296.081-19.5-81.845,36.968-8.784,14.143,66.975,66.176,313.3A8.943,8.943,0,0,1,758.64,1703.361Z" fill="#fdab71"/>
      <polygon points="699.023 1377.899 667.414 1401.002 647.912 1321.063 684.88 1312.484 699.023 1377.899" fill="#e99163"/>
      <path d="M601.428,1321.268l-13.865,58.191-76.219,319.735a8.74,8.74,0,0,1-10.454,6.6l-10.19-2.429a8.944,8.944,0,0,1-6.559-10.6l61.169-289.65h.015l19.135-90.629Z" fill="#fdab71"/>
      <polygon points="601.428 1321.063 587.563 1377.899 545.325 1401.002 564.46 1312.484 601.428 1321.063" fill="#e99163"/>
      <path d="M504.937,1300.538H735.618a31.447,31.447,0,0,1,31.447,31.447v36.549a9.365,9.365,0,0,1-9.365,9.365H482.855a9.365,9.365,0,0,1-9.365-9.365v-36.549a31.447,31.447,0,0,1,31.447-31.447Z" fill="#c7c7e3"/>
    </g>
    <g>
      <path d="M1079.915,870.8l-4.073-1.894c.022-.046,2.159-4.664,5-12.349l4.212,1.56C1082.144,865.986,1080.005,870.6,1079.915,870.8Zm9.542-25.553-4.284-1.347c1.341-4.267,2.584-8.591,3.695-12.854l4.347,1.134C1092.085,836.511,1090.821,840.908,1089.457,845.244Zm6.843-26.316-4.4-.9c.905-4.422,1.679-8.847,2.3-13.15l4.445.64C1098.011,809.906,1097.223,814.418,1096.3,818.928ZM918.4,801.109c-2.327,0-4.689-.09-7.021-.267l.34-4.478c2.233.168,4.49.261,6.723.253,2.128,0,4.283-.077,6.406-.229l.321,4.48c-2.23.159-4.492.241-6.726.241Zm20.407-2.205-.953-4.388A98.863,98.863,0,0,0,950.5,790.86l1.531,4.222A102.747,102.747,0,0,1,938.808,798.9Zm-41.065-.122a93.14,93.14,0,0,1-13.185-4.059l1.636-4.183a88.572,88.572,0,0,0,12.547,3.862Zm202.4-6.81-4.479-.345c.346-4.5.521-8.959.521-13.255l4.491-.038C1100.681,782.782,1100.5,787.357,1100.148,791.972ZM964.625,789.6l-2.04-4A119.413,119.413,0,0,0,974,778.938l2.472,3.751A123.947,123.947,0,0,1,964.625,789.6Zm-92.507-.842a91.081,91.081,0,0,1-11.412-7.766l2.8-3.509a86.768,86.768,0,0,0,10.847,7.382ZM987.5,774.591l-2.831-3.487c3.347-2.716,6.686-5.68,9.925-8.812l3.122,3.231C994.388,768.744,990.95,771.8,987.5,774.591Zm-136.879-3.058a78.674,78.674,0,0,1-8.377-11.037l3.808-2.382a74.073,74.073,0,0,0,7.9,10.4Zm244.984-6.456a127.24,127.24,0,0,0-1.852-13.1l4.408-.866a132.1,132.1,0,0,1,1.918,13.567Zm-88.462-9.412-3.36-2.98c2.867-3.231,5.723-6.683,8.492-10.26l3.552,2.749C1013,748.83,1010.08,752.36,1007.147,755.665ZM836.08,748.03a57.837,57.837,0,0,1-3.276-13.592l4.463-.5a53.4,53.4,0,0,0,3.025,12.533Zm254.378-8.823a96.835,96.835,0,0,0-4.9-12.208l4.043-1.957a101.389,101.389,0,0,1,5.127,12.774Zm-66.632-5.038-3.708-2.534c2.448-3.583,4.882-7.359,7.236-11.222l3.836,2.337C1028.8,726.68,1026.318,730.522,1023.826,734.169ZM837.6,721.154l-4.427-.76a47.846,47.846,0,0,1,4.4-13.371l4.015,2.013A43.349,43.349,0,0,0,837.6,721.154Zm241.389-5.513a86.916,86.916,0,0,0-8.186-10.239l3.287-3.061a91.536,91.536,0,0,1,8.61,10.769Zm-41.019-4.648-3.94-2.157.727-1.336q2.881-5.327,5.687-10.5l3.949,2.142q-2.806,5.172-5.686,10.5ZM848.856,698.465l-3.345-3a65.788,65.788,0,0,1,10.376-9.269l2.636,3.636A61.277,61.277,0,0,0,848.856,698.465Zm212.326-1.98a99.788,99.788,0,0,0-10.8-7.511l2.322-3.846a104.574,104.574,0,0,1,11.282,7.851Zm-10.357-9.181-3.945-2.148q3.279-6.023,6.452-11.83l3.942,2.155Q1054.1,681.283,1050.825,687.3Zm-181.1-4.227-2.017-4.014a112.639,112.639,0,0,1,12.643-5.365l1.509,4.23A108.111,108.111,0,0,0,869.73,683.077Zm168.979-.235c-3.89-1.771-8.029-3.408-12.305-4.865l1.449-4.251c4.415,1.5,8.694,3.2,12.717,5.028Zm-25.035-8.6c-4.162-1.041-8.539-1.968-13.011-2.756l.779-4.424c4.576.806,9.058,1.756,13.321,2.822Zm-119.123-.14-1.1-4.355c4.232-1.069,8.72-2.017,13.341-2.819l.767,4.426C903.05,672.135,898.673,673.06,894.551,674.1Zm92.924-4.524c-4.29-.493-8.763-.889-13.3-1.177l.284-4.483c4.608.293,9.159.7,13.524,1.2Zm-66.716-.086-.5-4.464c4.357-.482,8.91-.866,13.536-1.141l.267,4.484C929.517,668.64,925.039,669.017,920.759,669.491Zm26.679-1.63-.086-4.49q6.98-.135,13.56-.006l-.087,4.491Q954.329,667.733,947.438,667.861Zm116.308-4.188-3.935-2.164q3.312-6.023,6.511-11.8l3.929,2.176Q1067.054,657.657,1063.746,663.673Zm13.048-23.555-3.921-2.19q3.36-6.016,6.6-11.754l3.912,2.208Q1080.149,634.112,1076.794,640.118Zm13.237-23.437-3.9-2.231q3.435-6,6.735-11.683l3.883,2.256Q1093.455,610.692,1090.031,616.681Zm254.981-18.154c-.862-4.183-1.917-8.553-3.135-12.989l4.332-1.188c1.243,4.528,2.32,8.993,3.2,13.269Zm-241.457-5.1-3.865-2.29q3.543-5.977,6.94-11.571l3.839,2.331Q1107.082,587.469,1103.555,593.423Zm234.406-20.664c-1.442-4.253-3.015-8.461-4.673-12.508l4.157-1.7c1.693,4.132,3.3,8.428,4.77,12.768Zm-220.443-2.306-3.808-2.384c2.476-3.954,4.919-7.785,7.263-11.387l3.765,2.45C1122.408,562.712,1119.979,566.521,1117.518,570.453Zm210.308-22.367c-1.989-4.051-4.112-8-6.309-11.722l3.869-2.281c2.255,3.825,4.433,7.87,6.472,12.023Zm-195.651-.118-3.709-2.534c2.658-3.889,5.28-7.611,7.793-11.062l3.631,2.644C1137.4,540.432,1134.807,544.116,1132.175,547.968Zm15.792-21.61-3.522-2.789c2.949-3.724,5.879-7.231,8.709-10.426l3.362,2.979C1153.74,519.255,1150.864,522.7,1147.967,526.358Zm166.324-1.139c-2.617-3.668-5.38-7.166-8.213-10.4l3.378-2.961c2.931,3.344,5.788,6.961,8.491,10.75Zm-148.608-18.71-3.121-3.23a126.83,126.83,0,0,1,10.322-9l2.754,3.548A122.952,122.952,0,0,0,1165.683,506.509Zm131.147-1.123a103.686,103.686,0,0,0-10.288-8.229l2.573-3.682a108.2,108.2,0,0,1,10.735,8.586Zm-110.3-14.85-2.206-3.913a78.243,78.243,0,0,1,12.6-5.72l1.481,4.241A72.725,72.725,0,0,0,1186.531,490.536Zm88.749-.154a92.751,92.751,0,0,0-12.086-5.123l1.454-4.249a97.139,97.139,0,0,1,12.674,5.372Zm-64.163-8.489-.816-4.418a115.733,115.733,0,0,1,13.635-1.683l.285,4.483A111.2,111.2,0,0,0,1211.117,481.893Zm39.365-.012a100.794,100.794,0,0,0-13.069-1.637l.267-4.484a105.551,105.551,0,0,1,13.654,1.71Z" fill="#feb701"/>
      <g>
        <rect x="1148.696" y="565.565" width="630.273" height="1137.683" rx="61.602" fill="#1c5276"/>
        <rect x="1174.301" y="590.452" width="579.063" height="1059.467" rx="51.983" fill="#fff"/>
        <rect x="1419.888" y="581.564" width="99.547" height="46.218" rx="14.598" fill="#1c5276"/>
        <g>
          <rect x="1217.239" y="743.328" width="394.634" height="135.1" rx="23.823" fill="#ffaa40"/>
          <polygon points="1217.868 847.549 1220.794 915.758 1257.299 878.428 1217.868 847.549" fill="#ffaa40"/>
        </g>
        <g>
          <rect x="1208.35" y="1210.845" width="394.634" height="135.1" rx="23.823" fill="#ffaa40"/>
          <polygon points="1208.98 1315.066 1211.906 1383.275 1248.411 1345.944 1208.98 1315.066" fill="#ffaa40"/>
        </g>
        <g>
          <rect x="1322.119" y="983.308" width="394.634" height="135.1" rx="23.823" transform="translate(3038.871 2101.716) rotate(-180)" fill="#494e6d"/>
          <polygon points="1716.123 1087.529 1713.197 1155.738 1676.692 1118.408 1716.123 1087.529" fill="#494e6d"/>
        </g>
        <rect x="1217.239" y="1493.488" width="499.514" height="72.883" rx="23.02" fill="#494e6d"/>
      </g>
      <rect x="1259.716" y="784.957" width="147.503" height="12.96" rx="5.319" fill="#fff"/>
      <rect x="1260.58" y="823.838" width="237.156" height="12.96" rx="5.319" fill="#fff"/>
      <rect x="1254.963" y="1245.575" width="147.503" height="12.96" rx="5.319" fill="#fff"/>
      <rect x="1255.827" y="1284.456" width="237.156" height="12.96" rx="5.319" fill="#fff"/>
      <rect x="1451.799" y="1021.269" width="147.503" height="12.96" rx="5.319" fill="#fff"/>
      <rect x="1365.828" y="1061.447" width="237.156" height="12.96" rx="5.319" fill="#fff"/>
    </g>
    <g>
      <g>
        <g>
          <path d="M782.058,1663.516l16.759,4.806a10.706,10.706,0,0,0,13.218-6.772L823.57,1625l-37.081-10.634-11.535,36.548A10.045,10.045,0,0,0,782.058,1663.516Z" fill="#fb855f"/>
          <path d="M1011.52,1612.171H1029.8a10.222,10.222,0,0,1,10.222,10.222v40.427a0,0,0,0,1,0,0H1001.3a0,0,0,0,1,0,0v-40.427A10.222,10.222,0,0,1,1011.52,1612.171Z" transform="translate(2463.136 2919.056) rotate(163.555)" fill="#fb855f"/>
          <path d="M988.218,1309.263l-.168.708a53.514,53.514,0,0,1-64.75,39.011q-12.649-3.117-25.524-6.244c-97.36-23.683-203.277-47.489-295.92-65.76l26.782-114c82.537,16.7,191.721,44.783,299.671,76.034q11.505,3.336,22.986,6.7a53.392,53.392,0,0,1,36.923,63.548Z" fill="#5f6386"/>
          <path d="M1064.713,1600.186l-86.9,25.648c-16.114-66-53.969-192.305-80.032-283.1-2.954-10.275-5.75-20.1-8.355-29.331a53.278,53.278,0,0,1,35.1-65.221c.371-.135.742-.247,1.123-.359a53.327,53.327,0,0,1,67.029,39.1q2.139,9.264,4.4,19.011C1020.144,1405.579,1051.227,1539.266,1064.713,1600.186Z" fill="#5f6386"/>
          <path d="M879.225,1349.6q-.675,2.593-1.55,5.12a53.52,53.52,0,0,1-68.725,32.7q-14.975-5.406-30.274-10.87c-55.755-19.876-114.306-40.055-171.351-58.932a114.04,114.04,0,0,1-71.959-145.984c77.674,24.391,182.648,59.607,284.073,99.9q14.621,5.795,29.107,11.757c1.156.461,2.324.932,3.48,1.415C876.619,1294.833,885.85,1323.929,879.225,1349.6Z" fill="#5f6386"/>
          <path d="M888.691,1339.268c-.2,1.471-.4,2.942-.618,4.436-13.5,97.742-32.6,237.5-41.762,299.289l-90.386-6.143c7.5-59.831,15.676-172.6,22.751-260.3,1.392-17.215,2.74-33.464,4.031-48.163,1.5-17.2,11.847-31.69,26.434-39.741a55.166,55.166,0,0,1,30.488-6.693,56.356,56.356,0,0,1,8.917,1.336C874.463,1289.308,892.3,1313.16,888.691,1339.268Z" fill="#5f6386"/>
          <polygon points="690.739 1293.31 589.492 1291.979 587.77 1161.314 666.424 1181.391 690.739 1293.31" fill="#5f6386"/>
          <path d="M976.469,1627.99l-6.053-35.716,90.208-22.9,6.03,32Zm-2.213-33.216,4.9,28.911L1062.779,1599l-4.8-25.478Z" fill="#30354f"/>
          <path d="M847.757,1644.785l-93.766-6.381,5.444-36.661,93.425,6.5Zm-89.9-9.5,87,5.921,4.17-29.855-86.715-6.034Z" fill="#30354f"/>
          <path d="M1039.4,1637.534l93.556-8.435a12.764,12.764,0,0,1,13.389,9.1h0a12.765,12.765,0,0,1-8.629,15.857l-125.614,37.078-9.709-42.192Z" fill="#5f6386"/>
          <path d="M813.4,1652.614l82.911,42.089a11.95,11.95,0,0,1,6.224,14.246h0c-2.031,6.436-9.15,10.083-15.9,8.147l-125.419-35.968,14.971-38.724Z" fill="#5f6386"/>
        </g>
        <circle cx="664.538" cy="1170.509" r="3.265" fill="#001065"/>
        <g>
          <path d="M717.435,866.009s49.258,22.5,99.887,49.271c56.134,29.678,113.556,65.324,98.831,97.036C883.732,1082.135,680.081,931.3,680.081,931.3,652.056,903,682.619,860.032,717.435,866.009Z" fill="#eb8f90"/>
          <path d="M802.945,898.031q-12.99,50.055-49.709,100.026L648.61,917.907l40.2-68.218Z" fill="#80c2c1"/>
          <g>
            <path d="M1026.116,872.132S823.627,956.7,848.32,1014.755c27.845,65.467,201.771-112.282,201.771-112.282S1054.362,883.166,1026.116,872.132Z" fill="#eb8f90"/>
            <path d="M1013.606,877.6s-.991-14.3,4.385-24.667,10.176-16.664,10.087-30.409,13.972-11.852,13.546.088-3.646,30.823,9.929,26.237,27.892-40.689,41.355-21.673c0,0,10.08-14.489,15.41-9.169s-3.729,18.513-3.729,18.513,19.846,1.011-8.664,30.223c0,0,7.842,5.419,3,11.836-7.751,10.263-32.1,23.933-53.42,28.5C1010.854,914.508,1013.606,877.6,1013.606,877.6Z" fill="#eb8f90"/>
            <path d="M1060.985,860.808c28.786-22.761,32.843-32.808,33-33.226l-2.156-.829c-.038.1-4.213,10.049-32.281,32.242Z" fill="#d16b70"/>
            <path d="M1070.3,870.582c16.133-10.62,34.99-33.1,35.18-33.326l-1.774-1.481c-.188.223-18.831,22.445-34.679,32.877Z" fill="#d16b70"/>
            <path d="M1074.7,882.539c9.712-6.262,21.772-14.771,21.891-14.857l-1.332-1.887c-.122.085-12.143,8.566-21.81,14.8Z" fill="#d16b70"/>
          </g>
          <path d="M767.714,1197.9S764.284,891.628,698,854c-38-21.573-116.641-15.715-156.745,14.09-40.475,30.08-8.528,321.651-8.528,321.651Z" fill="#80c2c1"/>
          <path d="M577.315,911.86s31.2,44.262,61.441,92.9c33.526,53.924,65.157,113.653,36.456,133.62-63.191,43.964-163.063-188.956-163.063-188.956C502.2,910.859,550.256,889.151,577.315,911.86Z" fill="#eb8f90"/>
          <path d="M621.472,962.558c-26.445,28.54-58.543,47.316-93.759,60.706L495.928,944.17a52.572,52.572,0,0,1,23.423-65.654l39.387-21.687Z" fill="#80c2c1"/>
          <g>
            <path d="M869.908,1095.482s-233.668-50.742-242.72,15.253c-10.208,74.42,248.224,26.057,248.224,26.057S889.964,1122.533,869.908,1095.482Z" fill="#eb8f90"/>
            <path d="M855.34,1092.557s6.936-13.118,17.6-18.877,18.561-8.309,26.027-20.388,19.427-1.762,12.477,8.421-20.3,24.716-5.228,29.066,48.134-18.414,50.139,6.513c0,0,17.277-6.466,19.283,1.471s-13.614,13.9-13.614,13.9,17.794,13.108-24.609,21.1c0,0,4.274,9.57-3.731,12.2-12.8,4.2-42.825,1.163-65.046-7.969C832.524,1123.151,855.34,1092.557,855.34,1092.557Z" fill="#eb8f90"/>
            <path d="M908.268,1106.973c39.107-2.181,48.381-8.471,48.756-8.739l-1.329-1.89c-.091.063-9.424,6.195-47.558,8.322Z" fill="#d16b70"/>
            <path d="M913.961,1121.3c20.555,0,48.082-7.439,48.368-7.518l-.609-2.23c-.294.079-29.739,8.034-50.134,7.4l-.072,2.312Q912.72,1121.295,913.961,1121.3Z" fill="#d16b70"/>
            <path d="M937.23,1134.919h.19l0-2.312c-.156.014-15.927.014-28.3-.487l-.094,2.312C920.7,1134.9,935.4,1134.919,937.23,1134.919Z" fill="#d16b70"/>
          </g>
          <path d="M640.77,885.455c27.571,0,40.142-32.207,32.733-39.617a26.1,26.1,0,0,1-5.2-8.056h-.021a54.34,54.34,0,0,1-3.745-13.989l-.02-.02-50.973-45.467c2.753,28.949-9.636,49.273-14.13,63.747C594.938,856.527,609.412,885.455,640.77,885.455Z" fill="#eb8f90"/>
          <path d="M622.49,812.538c14.617,27.958,44.94,25.183,45.79,25.244a54.34,54.34,0,0,1-3.745-13.989l-.02-.02C663.138,822.984,608.79,786.334,622.49,812.538Z" fill="#d16b70"/>
          <path d="M563.126,726.292s2.191,26.423,40.61,53.644c40.28,28.539-5.569-59.175-5.569-59.175Z" fill="#8e3332"/>
          <path d="M668,710.419s5.44,22.77,12.491,48.326c10.08,36.531,10.94,66.071-26.273,66.071-62.5,0-58.341-103.715-58.341-103.715Z" fill="#eb8f90"/>
          <path d="M615.968,732.816s93.723-2.1,80.8-65.483-49.681,15.176-68.742,15.176c-22.359,0-83.257,3.257-60.907,56.476C572.927,752.81,582.2,734.977,615.968,732.816Z" fill="#8e3332"/>
          <path d="M751.509,993.264l4.6-.49c-.057-.545-6.078-55.006-29.651-101.512l-4.122,2.09C745.511,939.082,751.451,992.728,751.509,993.264Z" fill="#50a5a0"/>
          <path d="M640.2,903.426a61.012,61.012,0,0,0,11.762-1.179c33.791-6.626,41.173-49.3,41.469-51.117l-4.56-.751c-.07.413-7.177,41.326-37.8,47.33-28.342,5.561-52.012-10.583-70.357-47.972l-4.15,2.036C593.408,886.1,614.778,903.426,640.2,903.426Z" fill="#50a5a0"/>
          <path d="M521.6,1007.677c2.845-1.351,69.854-33.365,89.289-58.144l-3.639-2.854c-18.765,23.926-86.946,56.5-87.632,56.822Z" fill="#50a5a0"/>
          <path d="M751.162,969.144c16.647-21.768,35.963-75.073,36.775-77.332l-4.348-1.568c-.2.548-19.887,54.891-36.1,76.092Z" fill="#50a5a0"/>
          <circle cx="602.614" cy="788.427" r="18.858" fill="#eb8f90"/>
          <path d="M598.459,751.669s10.228,24.931,23.013,32.6,33.881-12.785,64.566-7.031c0,0,2.557,33.881-8.311,52.419,0,0-32.6,6.393-51.78-14.7a296.216,296.216,0,0,1-32.6-44.109Z" fill="#8e3332"/>
          <path d="M675.17,788.107l-19.817,2.557s1.918,17.58,12.785,15.982S675.17,788.107,675.17,788.107Z" fill="#fff"/>
          <circle cx="643.465" cy="749.271" r="3.6" fill="#8e3332"/>
          <circle cx="665.907" cy="744.316" r="3.6" fill="#8e3332"/>
          <path d="M662.713,776.691c4.345,0,7.91-2.191,9.337-5.148,1.463-3.038.914-7.743-5.45-11.012-9.121-4.686-7.831-14.321-7.818-14.418l-4.574-.666a19.058,19.058,0,0,0,10.279,19.2c1.084.555,4.526,2.551,3.4,4.891-.935,1.939-4.755,3.624-9.207,1.611l-1.9,4.215A14.429,14.429,0,0,0,662.713,776.691Z" fill="#8e3332"/>
          <path d="M633.371,743.459a10.006,10.006,0,0,1,8.017-6.014l-.235-4.617a14.635,14.635,0,0,0-12,8.735Z" fill="#8e3332"/>
          <path d="M658.234,733.685c4.5-3.187,10.885-1.758,10.953-1.741l1.064-4.5c-.339-.085-8.462-1.951-14.69,2.47Z" fill="#8e3332"/>
          <polygon points="676.992 1081.623 697.926 1079.147 697.384 1074.555 679.814 1076.633 669.393 1053.56 665.18 1055.463 676.992 1081.623" fill="#50a5a0"/>
        </g>
      </g>
      <rect x="778.294" y="1371.14" width="16.983" height="3.37" transform="translate(-403.244 329.987) rotate(-18.954)" fill="#30354f"/>
      <path d="M997.078,1305.939a49.071,49.071,0,0,1-9.028,4.032,49.946,49.946,0,0,1-63.526-61.785,49.149,49.149,0,0,1,3.785-9.175q11.505,3.336,22.986,6.7a62.9,62.9,0,0,1,41.381,41.213Q994.815,1296.192,997.078,1305.939Z" fill="#494e6d"/>
      <path d="M888.691,1339.268c-.2,1.471-.4,2.942-.618,4.436a49.911,49.911,0,0,1-68.634-72.172q14.621,5.795,29.107,11.757C874.463,1289.308,892.3,1313.16,888.691,1339.268Z" fill="#494e6d"/>
      <path d="M884.758,1316.672c-.6-15.727-52.3-44.787-83.07-60.709-42.77-22.134-84.623-39.895-84.915-40.007l1.111-3.18c1.1.369,43.493,18.563,84.832,39.925,56.168,29.026,84.9,50.506,85.408,63.844Z" fill="#30354f"/>
      <polygon points="655.868 1295.329 652.514 1295.025 655.312 1264.243 589.696 1238.35 590.933 1235.215 658.896 1262.035 655.868 1295.329" fill="#30354f"/>
    </g>
    <rect x="1046.583" y="800.44" width="61.146" height="115.887" rx="6.938" transform="translate(213.749 -214.75) rotate(12.63)" fill="#1c5276"/>
    <g>
      <path d="M312.73,1583.683c0,6.238,2.907,11.969,7.78,16.51h4.325c9.21,0,16.87-5.188,17.609-11.925l3.431-31.175C327.289,1558.283,312.73,1569.728,312.73,1583.683Z" fill="#b0b0d6"/>
      <g>
        <path d="M375.207,1460.711c-10,15.226-37.744,28.978-64.336,16.379s-42.892-54.807-42.892-54.807,33.336-5.04,33.4-10.71-17.1,5.67-28.249-8.189-48.038-71.187-39.459-76.857a100.948,100.948,0,0,0,13.725-10.709s-9.019.789-22.3-11.969c-33.455-32.129-28.308-129.144-28.308-129.144,48.9-17.009,90.5,73.077,91.573,84.416s0,36.538,0,36.538,18.228-9.449,24.233-3.78,38.6,69.3,36.029,78.116-21.446,26.459-4.289,27.089,26.592,5.04,30.881,11.969S390.648,1437.192,375.207,1460.711Z" fill="#9fa3bf"/>
        <path d="M356.763,1500.643a1.611,1.611,0,0,0,.3-.028c.637-.121,1.02-.6.854-1.067-3.769-10.66-92.821-261.392-137.206-288.972a1.506,1.506,0,0,0-1.679.1.727.727,0,0,0,.14,1.233c43.811,27.225,135.517,285.472,136.439,288.078A1.188,1.188,0,0,0,356.763,1500.643Z" fill="#30354f"/>
        <path d="M293.285,1486.539l8.09,73.531,1.847,16.861L310,1638.536l1.847,16.861,3.955,35.925c.739,6.737,8.4,11.926,17.609,11.926h46.7c9.21,0,16.87-5.189,17.609-11.926l3.431-31.174,1.418-12.95,4.349-39.548,1.93-17.525,6.374-58,1.93-17.507,3.086-28.078Z" fill="#c7c7e3"/>
        <path d="M301.375,1560.07l1.847,16.861L310,1638.536l1.847,16.861c26.163-6.781,44.916-25.1,44.916-46.644C356.764,1584.429,332.864,1564.218,301.375,1560.07Z" fill="#b0b0d6"/>
        <path d="M303.222,1576.931,310,1638.536c14.774-5.512,24.888-16.781,24.888-29.783C334.889,1593.844,321.593,1581.218,303.222,1576.931Z" fill="#b0b0d6"/>
        <path d="M366.951,1562.45c0,20.159,16.417,37.492,39.972,45.2l1.93-17.525,6.374-58,1.93-17.507C388.265,1520.172,366.951,1539.483,366.951,1562.45Z" fill="#b0b0d6"/>
        <path d="M388.825,1562.45c0,11.523,7.947,21.682,20.028,27.675l6.374-58C399.643,1537.418,388.825,1549,388.825,1562.45Z" fill="#b0b0d6"/>
        <path d="M350.509,1686.738a30.889,30.889,0,0,0,4.9,16.51h24.71c9.21,0,16.87-5.189,17.609-11.926l3.431-31.174,1.418-12.95C373.658,1647.9,350.509,1665.328,350.509,1686.738Z" fill="#b0b0d6"/>
        <path d="M397.506,1467.3c-18.888,11.493-54.292,15.776-72.83-5.092s-9.31-67.064-9.31-67.064,35.678,5.978,39.122.5-20.14-.077-22.794-17.135-4.575-84.607,7.217-87.3a149.141,149.141,0,0,0,19.845-5.9s-9.309-2.173-14.711-18.86c-13.6-42.021,49.364-134.322,49.364-134.322,58.074-.548,45.06,100.27,39.34,111.6s-21.815,35.394-21.815,35.394,23.506-3.215,26.006,4.233-3.545,79.7-11.332,87.407-36.815,18.644-20.377,24.843,23.051,13.545,23.117,21.655S426.68,1449.546,397.506,1467.3Z" fill="#5f6386"/>
        <path d="M356.113,1500a1.148,1.148,0,0,0,1.173-.728c2.671-11.554,65.1-283.431,38.079-324.591a1.406,1.406,0,0,0-1.59-.408c-.593.21-.842.733-.556,1.168,26.691,40.66-37.63,320.714-38.282,323.538-.11.476.326.928.975,1.009A1.707,1.707,0,0,0,356.113,1500Z" fill="#30354f"/>
        <rect x="283.849" y="1482.129" width="145.83" height="26.459" rx="9.805" transform="translate(713.528 2990.718) rotate(-180)" fill="#b0b0d6"/>
      </g>
    </g>
    <rect x="119.948" y="1703.248" width="1760.104" height="11.3" rx="5.65" fill="#5f6386"/>
  </g>
</svg>
