<svg version="1.2" xmlns="http://www.w3.org/2000/svg" viewBox="0 0 5000 4000" width="5000" height="4000">
	<title>23_05_30_freelance_mono_19</title>
	<style>
		.s0 { fill: #ffffff } 
		.s1 { fill: #262525;stroke: #262525;stroke-linecap: round;stroke-linejoin: round;stroke-width: 5 } 
		.s2 { fill: #ffffff;stroke: #262525;stroke-linecap: round;stroke-linejoin: round;stroke-width: 5 } 
		.s3 { fill: none;stroke: #262525;stroke-linecap: round;stroke-linejoin: round;stroke-width: 5 } 
		.s4 { fill: none;stroke: #262525;stroke-linecap: round;stroke-linejoin: round;stroke-width: 20.7 } 
		.s5 { fill: #ffffff;stroke: #262525;stroke-linecap: round;stroke-linejoin: round;stroke-width: 3.4 } 
		.s6 { fill: #262525 } 
		.s7 { fill: #bdbdbd;stroke: #262525;stroke-linecap: round;stroke-linejoin: round;stroke-width: 5 } 
		.s8 { fill: #bdbdbd } 
		.s9 { fill: none;stroke: #ffffff;stroke-linecap: round;stroke-linejoin: round;stroke-width: 5 } 
	</style>
	<g id="del">
		<path id="WhiteRect" class="s0" d="m0 4000v-4000h5000v4000z"/>
	</g>
	<g id="ap 2">
		<g id="&lt;Group&gt;">
			<g id="&lt;Group&gt;">
				<g id="&lt;Group&gt;">
					<path id="&lt;Path&gt;" class="s1" d="m4411.1 2566.6h-1050.4c-56.2 0-101.8 45.6-101.8 101.8v939.6l288-283.7h864.2c56.2 0 101.8-45.5 101.8-101.7v-554.2c0-56.2-45.6-101.8-101.8-101.8z"/>
					<g id="&lt;Group&gt;">
						<path id="&lt;Compound Path&gt;" class="s2" d="m3615.4 2970.3v-38.9q20.1-1.7 26.8-10.8 6.6-9.1 8.1-31.8l3.9-77.9q4.6-63.8 58.2-63.8h26.6v38.8h-11q-17.6 0-24.6 10.2-6.9 10.3-8.3 34.1l-3.7 65q-0.6 10.1-2.1 17.9-1.6 7.8-5.4 15.6-3.9 7.8-11.5 13.5-7.7 5.7-18.7 8.5 20.9 5.6 28.7 19.7 7.8 14.1 9 35.9l3.7 64.5q1.4 23.7 8.3 33.9 7 10.2 24.6 10.2h11v38.8h-26.6q-53.6 0-58.2-63.4l-3.9-77.9q-1.5-22.3-8.1-31.4-6.7-9.1-26.8-10.7z"/>
						<path id="&lt;Compound Path&gt;" class="s2" d="m3776.2 2978.6v-56.4h44.2v56.4z"/>
						<path id="&lt;Compound Path&gt;" class="s2" d="m3866.1 2978.6v-56.4h44.2v56.4z"/>
						<path id="&lt;Compound Path&gt;" class="s2" d="m3956 2978.6v-56.4h44.2v56.4z"/>
						<path id="&lt;Compound Path&gt;" class="s2" d="m4036.5 3153.7v-38.8h11.1q17.6 0 24.7-10 7-9.9 8.5-33.1l3.4-65.5q2.5-10.3 3.1-18.1 0.6-7.7 4.3-15.6 3.6-7.9 11.3-13.5 7.6-5.6 19-8.4-9.1-2.3-15.9-6.7-6.8-4.4-10.8-9.4-3.9-5-6.4-12-2.4-7-3.4-13.2-1-6.3-1.2-14.6l-3.4-65.8q-1.5-23.2-8.5-33.1-7.1-10-24.7-10h-11.1v-38.8h26.7q26.7 0 41.4 16.1 14.6 16.2 16.3 46.2l4.7 78.9q1.4 23 7.7 32.2 6.3 9.2 26.3 10.9v38.9q-19.4 1-25.5 6.3-6.1 5.4-7.5 18.9l-4.9 82.4q-1.7 36.7-16.5 56.3-14.7 19.5-41.7 19.5z"/>
					</g>
				</g>
				<g id="&lt;Group&gt;">
					<g id="&lt;Group&gt;">
						<path id="&lt;Path&gt;" class="s2" d="m2113.4 3123h-1626.3v-1967.2h1626.3z"/>
						<g id="&lt;Group&gt;">
							<g id="&lt;Group&gt;">
								<g id="&lt;Group&gt;">
									<path id="&lt;Path&gt;" class="s3" d="m711.3 1575.3h-113.2v1402.7h113.2"/>
									<path id="&lt;Path&gt;" class="s3" d="m711.3 1731.2h-113.2"/>
								</g>
								<path id="&lt;Path&gt;" class="s3" d="m711.3 2666.3h-113.2"/>
								<path id="&lt;Path&gt;" class="s3" d="m711.3 2510.5h-113.2"/>
							</g>
							<g id="&lt;Group&gt;">
								<path id="&lt;Path&gt;" class="s4" d="m790.2 1575.3h552.9"/>
								<path id="&lt;Path&gt;" class="s4" d="m1060.6 1887h794.8"/>
								<path id="&lt;Path&gt;" class="s4" d="m1060.6 2354.6h583.6"/>
								<path id="&lt;Path&gt;" class="s4" d="m1458 2042.9h206.3"/>
								<path id="&lt;Path&gt;" class="s4" d="m1060.6 2042.9h282.5"/>
								<path id="&lt;Path&gt;" class="s4" d="m1060.6 2822.2h510.8"/>
								<path id="&lt;Path&gt;" class="s4" d="m1060.6 2978h845.1"/>
								<path id="&lt;Path&gt;" class="s4" d="m1060.6 2198.7h583.6"/>
								<path id="&lt;Path&gt;" class="s4" d="m852.1 1731.2h174.8"/>
								<path id="&lt;Path&gt;" class="s4" d="m852.1 2510.5h174.8"/>
								<path id="&lt;Path&gt;" class="s4" d="m852.1 2666.3h174.8"/>
								<path id="&lt;Path&gt;" class="s4" d="m1458 1575.3h168.2"/>
							</g>
						</g>
					</g>
					<g id="&lt;Group&gt;">
						<path id="&lt;Path&gt;" class="s1" d="m2113.4 1432.9h-1626.3v-277.1h1626.3z"/>
						<g id="&lt;Group&gt;">
							<g id="&lt;Group&gt;">
								<path id="&lt;Compound Path&gt;" class="s5" d="m1144.8 1313.8v-21l87.8-32.1v21.1l-60.3 21.5 60.3 21.6v21.2z"/>
								<path id="&lt;Compound Path&gt;" class="s5" d="m1244.6 1397.5l74.2-188.3h25.6l-74.2 188.3z"/>
								<path id="&lt;Compound Path&gt;" class="s5" d="m1356.5 1346.1v-21.2l60.3-21.6-60.3-21.5v-21.1l87.7 32.1v21z"/>
							</g>
						</g>
					</g>
				</g>
				<g id="&lt;Group&gt;">
					<g id="&lt;Group&gt;">
						<path id="&lt;Path&gt;" class="s2" d="m4510.9 2141.8h-2677.4v-1749.8h2677.4z"/>
						<g id="&lt;Group&gt;">
							<g id="&lt;Group&gt;">
								<g id="&lt;Group&gt;">
									<path id="&lt;Path&gt;" class="s3" d="m2145.8 914.1h-136.3v938.7h136.3"/>
									<path id="&lt;Path&gt;" class="s3" d="m2145.8 1101.9h-136.3"/>
								</g>
							</g>
							<g id="&lt;Group&gt;">
								<path id="&lt;Path&gt;" class="s4" d="m2240.8 914.1h666"/>
								<path id="&lt;Path&gt;" class="s4" d="m2566.5 1289.6h1326.5"/>
								<path id="&lt;Path&gt;" class="s4" d="m4056.5 1288.3h248.5"/>
								<path id="&lt;Path&gt;" class="s4" d="m2566.5 1477.3h414.5"/>
								<path id="&lt;Path&gt;" class="s4" d="m3153.8 1477.3h1027"/>
								<path id="&lt;Path&gt;" class="s4" d="m2566.5 1665.1h1277.5"/>
								<path id="&lt;Path&gt;" class="s4" d="m4037.5 1665.1h267.5"/>
								<path id="&lt;Path&gt;" class="s4" d="m2315.4 1101.9h210.6"/>
								<path id="&lt;Path&gt;" class="s4" d="m2315.4 1852.8h210.6"/>
								<path id="&lt;Path&gt;" class="s4" d="m3258.9 914.1h-209.2"/>
								<path id="&lt;Path&gt;" class="s4" d="m3389 914.1h821.3"/>
							</g>
						</g>
					</g>
					<g id="&lt;Group&gt;">
						<path id="&lt;Path&gt;" class="s1" d="m4512.9 725.7h-2677.4v-333.7h2677.4z"/>
						<g id="&lt;Group&gt;">
							<g id="&lt;Group&gt;">
								<path id="&lt;Compound Path&gt;" class="s2" d="m2993.9 573.5v-25.3l105.6-38.8v25.5l-72.6 25.9 72.6 25.9v25.7z"/>
								<path id="&lt;Compound Path&gt;" class="s2" d="m3114.1 674.2l89.3-226.8h30.9l-89.4 226.8z"/>
								<path id="&lt;Compound Path&gt;" class="s2" d="m3248.8 612.4v-25.7l72.6-25.9-72.6-25.9v-25.5l105.7 38.8v25.3z"/>
							</g>
						</g>
					</g>
				</g>
				<g id="&lt;Group&gt;">
					<g id="&lt;Group&gt;">
						<path id="&lt;Compound Path&gt;" class="s6" d="m753.1 815.7v-55l229.5-84.2v55.4l-157.7 56.3 157.7 56.4v55.7z"/>
						<path id="&lt;Compound Path&gt;" class="s6" d="m1014.2 1034.7l194.2-492.9h67l-194.1 492.9z"/>
						<path id="&lt;Compound Path&gt;" class="s6" d="m1307.1 900.3v-55.7l157.7-56.4-157.7-56.3v-55.4l229.5 84.2v55z"/>
					</g>
				</g>
			</g>
			<g id="&lt;Group&gt;">
				<g id="&lt;Group&gt;">
					<g id="&lt;Group&gt;">
						<path id="&lt;Path&gt;" class="s2" d="m2828.6 3230.8c64-87.1 45.2-209.6-41.9-273.6q-2.3-1.6-4.6-3.2c0-0.1-615.9-488.2-615.9-488.2-76.4-56.1-183.8-39.7-239.9 36.7-56.1 76.4-39.7 183.9 36.7 240l587.4 526.8c1.6 1.1 3.1 2.2 4.7 3.4 87.1 63.9 209.5 45.2 273.5-41.9z"/>
					</g>
					<g id="&lt;Group&gt;">
						<path id="&lt;Path&gt;" class="s0" d="m3051 3035.8c0 161.6-131 292.6-292.6 292.6-161.6 0-292.6-131-292.6-292.6 0-161.6 131-292.7 292.6-292.7 161.6 0 292.6 131.1 292.6 292.7z"/>
						<path id="&lt;Path&gt;" class="s3" d="m2648.3 3309.4c0 0 7 0.3 7.5 0.5 31.9 11.9 66.5 18.5 102.6 18.5 161.6 0 292.6-131 292.6-292.6l-0.3-14.7"/>
					</g>
				</g>
				<g id="&lt;Group&gt;">
					<path id="&lt;Path&gt;" class="s7" d="m2767.2 1966.3h-59.6c-26.9 0-48.7-21.8-48.7-48.8v-215.6c0-26.9 21.8-48.8 48.7-48.8h59.6c26.9 0 48.8 21.9 48.8 48.8v215.6c0 27-21.9 48.8-48.8 48.8z"/>
					<g id="&lt;Group&gt;">
						<path id="&lt;Path&gt;" class="s7" d="m2669.4 1844.6c-59 8.4-113.6-32.6-122-91.6l-29.2-205.4c-10.9-77 42.6-148.4 119.7-159.3 77-11 148.3 42.6 159.3 119.6l19.9 140c13.5 95.1-52.6 183.2-147.7 196.7z"/>
						<g id="&lt;Group&gt;">
							<path id="&lt;Compound Path&gt;" class="s1" d="m2798.6 1660.8l-10.2 54.7c-4 8-11.7 13.6-20.6 14.9l-43.5 6.2c-6.9 1-14-0.7-19.7-4.8l-7.4-5.2c-11.2-8-24.9-11.3-38.5-9.4l-41.3 5.9c-11.2 1.6-21.5 6.6-29.6 14.4l-21.2 20.3c-0.9 0.9-2 1.5-3.3 1.7-2.9 0.4-5.8-1.4-6.7-4.2l-16-50.3 10 70.1c8.4 59 62.9 100 121.9 91.6 95.1-13.5 161.2-101.6 147.7-196.7l-0.7-4.7zm-106.9 114.8l-22.5 3.2c-9.2 1.3-17.2 1.3-20.7-5-1.6-3-5-4.6-8.4-4.2l-0.5 0.1c-3.4 0.5-6.2 3-6.9 6.3-1.6 7-9.3 9.3-18.5 10.7l-15.8 2.2c-6.9 1-13.2-3.8-14.2-10.7l-0.3-2.2c-1.3-8.8 2-17.7 8.7-23.7l5.8-5.2c6.8-6 15.2-9.9 24.1-11.2l30.5-4.3c11.5-1.6 23.2 1.2 32.7 7.8l5.6 3.9c6 4.2 10.1 10.8 11.1 18.1 1 6.9-3.8 13.3-10.7 14.2z"/>
							<path id="&lt;Path&gt;" class="s1" d="m2844.3 1452.4c-3.3-8.8-13.2-13.3-22.1-10q-0.8 0.4-1.6 0.8c4.4-11.4 4.9-24.5 0.2-36.8-10-26.5-39.7-39.9-66.2-29.9-3.6 1.4-7 3.2-10.1 5.2q-0.8-5-2.6-9.9c-10.4-27.3-40.9-41.1-68.3-30.8-15.8 6-27.1 18.8-31.8 33.8-4.3-9.8-15.5-14.6-25.6-10.7-7.7 2.9-12.6 10.1-13 17.8-12.3-10.2-29.7-13.7-45.7-7.6-12.5 4.7-21.8 14.3-26.5 25.8-3.1-0.6-6.4-0.4-9.6 0.8-8.7 3.3-13.2 12.8-10.4 21.6-12.3 7.6-18.7 22.1-15.9 36.3-16.6 7.8-24.7 27.1-18.1 44.6 5.2 13.7 17.9 22.3 31.6 22.9 5 15.9 10.9 29.9 10.9 29.9-1.6-10.4-2.7-22.4-3.3-30.4q3.3-0.5 6.5-1.8c10.1-3.8 17.4-11.7 20.8-21 7.4 7.2 18.6 10 28.9 6.1 7.4-2.8 12.8-8.5 15.6-15.2 14 19 39.5 27.3 62.7 18.5 10.8-4.1 19.4-11.2 25.5-20 11.1 14.5 30.7 20.7 48.7 13.9 4.9-1.8 9.2-4.5 12.9-7.7 4.7 23.5 10.8 55.9 14.7 70.7 5.9 22.5 24.7 44.7 24.7 44.7 10.3-0.8 33.7 33.3 33.9 46.7 0.1 13.4 6.4 24.9 6.4 24.9l-1.5 71.1c43.3-85.7 29.8-243.3 21-283.5 7.1-4.2 10.3-12.9 7.3-20.8z"/>
						</g>
						<g id="&lt;Group&gt;">
							<g id="&lt;Group&gt;">
								<path id="&lt;Path&gt;" class="s3" d="m2655.7 1629c0 0 14.6-36 69.4-19.7"/>
								<path id="&lt;Path&gt;" class="s6" d="m2698.7 1616.2c1.2 8.6-3.7 10.1-9.9 11-6.2 0.9-11.4 0.8-12.6-7.8-1.6-11.5 3.4-12.2 9.6-13.1 6.2-0.9 11.3-1.5 12.9 9.9z"/>
							</g>
							<g id="&lt;Group&gt;">
								<path id="&lt;Path&gt;" class="s3" d="m2598.3 1637.2c0 0-24.1-30.5-72.2 0.4"/>
								<path id="&lt;Path&gt;" class="s6" d="m2553.4 1636.8c1.2 8.6 6.3 8.7 12.6 7.9 6.2-0.9 11.1-2.5 9.9-11.1-1.7-11.5-6.7-10.7-12.9-9.9-6.2 0.9-11.3 1.8-9.6 13.1z"/>
							</g>
							<path id="&lt;Path&gt;" class="s3" d="m2617.3 1613c0 0-7.8 57.5-8.3 92-0.1 4.3 3.5 7.9 7.9 7.8 8-0.3 32.1-4.8 32.1-4.8"/>
							<path id="&lt;Path&gt;" class="s3" d="m2608.5 1756c39.9 16.7 68.3-9.7 68.3-9.7"/>
							<path id="&lt;Path&gt;" class="s1" d="m2698.3 1583l-30.9 4.4c-4.2 0.6-8.1-2.3-8.7-6.5-0.6-4.2 2.3-8.1 6.5-8.7l30.9-4.4c4.2-0.6 8.1 2.3 8.7 6.5 0.6 4.2-2.3 8.1-6.5 8.7z"/>
							<path id="&lt;Path&gt;" class="s1" d="m2578.6 1600.1l-30.9 4.3c-4.2 0.6-8.1-2.3-8.7-6.5-0.6-4.2 2.3-8.1 6.5-8.7l30.9-4.4c4.2-0.6 8.1 2.3 8.7 6.5 0.6 4.3-2.3 8.2-6.5 8.8z"/>
						</g>
						<g id="&lt;Group&gt;">
							<g id="&lt;Group&gt;">
								<path id="&lt;Path&gt;" class="s8" d="m2851.8 1652.3l-27.8 18.4c-22.6 15-53.1 1.3-57-25.6-2-14.1 4.3-28.2 16.2-36l27.9-18.4c22.6-15 53.1-1.3 56.9 25.6 2 14.1-4.3 28.1-16.2 36z"/>
								<path id="&lt;Path&gt;" class="s3" d="m2776.1 1615.2c2.1-2.3 4.5-4.4 7.1-6.1l27.9-18.4c22.6-15 53.1-1.3 56.9 25.6 2 14.1-4.3 28.1-16.2 36l-27.8 18.4c-2.8 1.9-5.8 3.3-8.8 4.3"/>
							</g>
							<g id="&lt;Group&gt;">
								<path id="&lt;Path&gt;" class="s3" d="m2802.5 1653.2c-4.2-3.9-7.2-9.2-8-15.3-2-14.3 7.8-27.4 22.1-29.5 9.3-1.3 18.3 2.6 23.8 9.4"/>
								<path id="&lt;Path&gt;" class="s3" d="m2794.7 1633.5c3.1-2 5.9-3.3 9.8-3.9 8.9-1.3 17.4 2.1 23 8.3"/>
							</g>
						</g>
						<g id="&lt;Group&gt;">
							<path id="&lt;Path&gt;" class="s1" d="m2699.2 1679.5l-41.3 5.9c-12.9 1.8-24.8-7.1-26.7-20l-2.1-14.6c-0.6-4.3 2.5-8.4 6.8-9l88.3-12.5c8.8-1.3 15.3 8.1 10.9 15.9l-9 16c-5.7 9.9-15.6 16.7-26.9 18.3z"/>
							<path id="&lt;Path&gt;" class="s1" d="m2535.9 1702.7l41.4-5.9c12.9-1.8 21.8-13.7 20-26.6l-2.1-14.6c-0.6-4.3-4.6-7.3-9-6.7l-88.2 12.5c-8.9 1.3-12.4 12.1-6 18.4l13.1 12.8c8.1 8 19.5 11.7 30.8 10.1z"/>
							<path id="&lt;Path&gt;" class="s3" d="m2596.1 1661.7l5.8-0.8c0 0 3.2-4.9 9.4-5.8 6.2-0.8 9.9 3 9.9 3l8.8-1.2"/>
						</g>
					</g>
				</g>
				<g id="&lt;Group&gt;">
					<g id="&lt;Group&gt;">
						<path id="&lt;Path&gt;" class="s2" d="m2529.9 2451.9c0 0 134.2 12.3 247.4-123.5 0 0-160-47.1-247.4 123.5z"/>
						<path id="&lt;Path&gt;" class="s7" d="m2823.3 2640.5c-53.6 36.8-128 20.5-163.7-33.9l-303-461c-35.7-54.4-21.1-129.1 33.9-163.8 53.3-33.6 124-18.4 158.7 34.5l305.5 464.9c34.7 52.9 20.6 123.7-31.4 159.3z"/>
						<path id="&lt;Path&gt;" class="s1" d="m2346.1 2132.2l183.8 319.7c0 0 86.5-148.8 247.4-123.5l-220.3-327.6c-33.8-50.3-99.1-68.9-154.4-43.9-66.9 30.3-93.2 111.7-56.5 175.3z"/>
					</g>
					<path id="&lt;Path&gt;" class="s7" d="m2199.1 2421.3c-5.7-76.9 66.8-136 140.9-115l446.9 126.3c62 16.1 99.2 79.4 83.1 141.4-16.1 62-79.4 99.2-141.4 83.1l-451.2-137.7c-43.9-13.4-75-52.4-78.3-98.1z"/>
				</g>
				<g id="&lt;Group&gt;">
					<g id="&lt;Group&gt;">
						<path id="&lt;Path&gt;" class="s2" d="m2816 1914.6c0 0-57.7 31.8-119.7 20.7-37.6-6.8-37.4-20.7-37.4-20.7l-221 47.6c-33.5 7.2-56.8 37.6-55 71.8l40.9 790.9 309.4 115 374.8 95.9v-993c0-32-21.7-59.8-52.7-67.7z"/>
						<path id="&lt;Path&gt;" class="s1" d="m2816 1914.6c0 0-57.7 31.8-119.7 20.7-37.6-6.8-37.4-20.7-37.4-20.7l-15.9 3.4c0 0-2.8 28 48.1 38.2 68.7 13.7 155.1-33.9 155.1-33.9z"/>
					</g>
					<g id="&lt;Group&gt;">
						<g id="&lt;Group&gt;">
							<path id="&lt;Path&gt;" class="s1" d="m2868 1930.7l-27.6 456.5 232.7 796.5 80.7 4.8-40.9-1155.4c-1.2-33.4-24.1-62-56.4-70.5l-172-44c-8.1-2-16 3.8-16.5 12.1z"/>
							<g id="&lt;Group&gt;">
								<path id="&lt;Path&gt;" class="s9" d="m2867.9 1976.9h214.6"/>
								<path id="&lt;Path&gt;" class="s9" d="m2861.8 2078.8h249.1"/>
								<path id="&lt;Path&gt;" class="s9" d="m2855.6 2180.7h260.1"/>
								<path id="&lt;Path&gt;" class="s9" d="m2849 2282.6h272.7"/>
								<path id="&lt;Path&gt;" class="s9" d="m2843.4 2384.5h279.9"/>
								<path id="&lt;Path&gt;" class="s9" d="m2873.7 2486.5h252.2"/>
								<path id="&lt;Path&gt;" class="s9" d="m2903.7 2588.4h225.8"/>
								<path id="&lt;Path&gt;" class="s9" d="m2931.8 2690.3h201.2"/>
								<path id="&lt;Path&gt;" class="s9" d="m2961.4 2792.2h175.7"/>
								<path id="&lt;Path&gt;" class="s9" d="m2991 2894.1h149.7"/>
								<path id="&lt;Path&gt;" class="s9" d="m3022.7 2996h121.6"/>
								<path id="&lt;Path&gt;" class="s9" d="m3051 3098h96.8"/>
							</g>
						</g>
						<g id="&lt;Group&gt;">
							<path id="&lt;Path&gt;" class="s1" d="m2584.8 1933.7l-89.4 930.5-112.6-52.2-26.2-752.1c-1.9-53.8 35.3-101.1 88.1-111.8l128.1-25c6.5-1.1 12.3 4 12 10.6z"/>
							<g id="&lt;Group&gt;">
								<path id="&lt;Path&gt;" class="s9" d="m2391.3 1976.9h187.7"/>
								<path id="&lt;Path&gt;" class="s9" d="m2359.1 2078.8h210"/>
								<path id="&lt;Path&gt;" class="s9" d="m2362.4 2180.7h198.7"/>
								<path id="&lt;Path&gt;" class="s9" d="m2366.3 2282.6h182.8"/>
								<path id="&lt;Path&gt;" class="s9" d="m2369.1 2384.5h170.2"/>
								<path id="&lt;Path&gt;" class="s9" d="m2372.9 2486.5h157.6"/>
								<path id="&lt;Path&gt;" class="s9" d="m2376.2 2588.4h144.6"/>
								<path id="&lt;Path&gt;" class="s9" d="m2379.8 2690.3h130.8"/>
								<path id="&lt;Path&gt;" class="s9" d="m2382.8 2792.2h117.6"/>
							</g>
						</g>
					</g>
				</g>
				<g id="&lt;Group&gt;">
					<path id="&lt;Path&gt;" class="s2" d="m3110.9 2474.9c0 0 155.5 27.4 247.4-123.5l-29.6-30.5c0 0-223.6 51.5-217.8 154z"/>
					<path id="&lt;Path&gt;" class="s7" d="m3401.8 2654.7c-53.6 35.1-125.5 20.3-160.6-33.3l-305.5-464.9c-35.2-53.5-20.3-125.4 33.2-160.6 53.6-35.1 125.5-20.2 160.6 33.3l305.5 464.9c35.2 53.5 20.3 125.4-33.2 160.6z"/>
					<g id="&lt;Group&gt;">
						<g id="&lt;Group&gt;">
							<path id="&lt;Path&gt;" class="s1" d="m2927.1 2155.2l183.8 319.7c0 0 86.5-148.8 247.4-123.5l-220.3-327.6c-33.8-50.3-99.1-68.9-154.4-43.9-66.9 30.3-93.2 111.7-56.5 175.3z"/>
							<g id="&lt;Group&gt;">
								<path id="&lt;Path&gt;" class="s9" d="m2959 1976.9h126.7"/>
								<path id="&lt;Path&gt;" class="s9" d="m2908.3 2078.8h265.9"/>
								<path id="&lt;Path&gt;" class="s9" d="m2941.7 2180.7h298.6"/>
								<path id="&lt;Path&gt;" class="s9" d="m3000.3 2282.6h311.8"/>
								<path id="&lt;Path&gt;" class="s9" d="m3058.9 2384.5h139"/>
							</g>
						</g>
						<path id="&lt;Path&gt;" class="s9" d="m2972.1 2233.6l138.8 241.3"/>
					</g>
				</g>
				<g id="&lt;Group&gt;">
					<g id="&lt;Group&gt;">
						<g id="&lt;Group&gt;">
							<path id="&lt;Path&gt;" class="s8" d="m2785 2510.1l-17.2-234 599.4 169.4c62 16.1 99.2 79.4 83.1 141.4-16 61.9-79.3 99.2-141.3 83.1z"/>
							<path id="&lt;Path&gt;" class="s3" d="m3298.7 2426.1l-530.9-150 17.2 234 524 159.9c62 16.1 125.3-21.2 141.3-83.1 8.6-33 2.1-66.3-15.2-92.7l-19-28.9"/>
						</g>
						<g id="&lt;Group&gt;">
							<g id="&lt;Group&gt;">
								<path id="&lt;Path&gt;" class="s8" d="m2844.6 2324.5c-7-16.8-30.4-22.8-30.4-22.8l-57.7-31.9c-19.9-11-42.3-16.7-65.1-16.7h-146.7c-58.5 0-106 47.5-106 106v30.3 85.5h268.2l41 23.3c26.8 15.2 57 23.2 87.8 23.2 0 0 37.3 1.7 68-15.8z"/>
								<path id="&lt;Path&gt;" class="s3" d="m2794.2 2283.5l-26.7-7.6-11-6.1c-19.9-11-42.3-16.7-65.1-16.7h-146.7c-58.5 0-106 47.5-106 106v30.3 85.5h268.2l41 23.3c22.7 12.8 47.8 20.5 73.6 22.6l34.1-11.6"/>
							</g>
							<g id="&lt;Group&gt;">
								<g id="&lt;Group&gt;">
									<path id="&lt;Path&gt;" class="s8" d="m2505.7 2375.9v139.9c0 18.5-15 33.6-33.5 33.6-18.5 0-33.5-15.1-33.5-33.6v-72.8"/>
									<path id="&lt;Path&gt;" class="s3" d="m2505.7 2375.9v139.9c0 18.5-15 33.6-33.5 33.6-18.5 0-33.5-15.1-33.5-33.6v-72.8"/>
								</g>
								<g id="&lt;Group&gt;">
									<path id="&lt;Path&gt;" class="s8" d="m2572.8 2375.9v139.9c0 18.5-15 33.6-33.5 33.6-18.6 0-33.6-15.1-33.6-33.6v-139.9"/>
									<path id="&lt;Path&gt;" class="s3" d="m2572.8 2375.9v139.9c0 18.5-15 33.6-33.5 33.6-18.6 0-33.6-15.1-33.6-33.6v-139.9"/>
								</g>
								<g id="&lt;Group&gt;">
									<path id="&lt;Path&gt;" class="s8" d="m2639.8 2375.9v139.9c0 18.5-15 33.6-33.5 33.6-18.5 0-33.5-15.1-33.5-33.6v-139.9"/>
									<path id="&lt;Path&gt;" class="s3" d="m2639.8 2375.9v139.9c0 18.5-15 33.6-33.5 33.6-18.5 0-33.5-15.1-33.5-33.6v-139.9"/>
								</g>
								<g id="&lt;Group&gt;">
									<path id="&lt;Path&gt;" class="s8" d="m2639.8 2375.9v139.9c0 18.5 15.1 33.6 33.6 33.6 18.5 0 33.5-15.1 33.5-33.6v-139.9l30.3 15.2"/>
									<path id="&lt;Path&gt;" class="s3" d="m2737.2 2391.1l-30.3-15.2v139.9c0 18.5-15 33.6-33.5 33.6-18.5 0-33.6-15.1-33.6-33.6v-139.9"/>
								</g>
							</g>
						</g>
					</g>
					<g id="&lt;Group&gt;">
						<g id="&lt;Group&gt;">
							<path id="&lt;Path&gt;" class="s2" d="m2952.3 2789.9l-2.7 2.7-764.2-19.9-301.4-263.5h787.2l280.1 247.4c9.9 8.7 10.4 24 1 33.3z"/>
							<path id="&lt;Path&gt;" class="s1" d="m2949.6 2792.6h-784.1l-298.4-263.5h784.2z"/>
						</g>
						<g id="&lt;Group&gt;">
							<path id="&lt;Path&gt;" class="s2" d="m2671.2 2509.2l-19.9 19.9-764.3-19.9-231.1-542.9 20-19.9h784.1z"/>
							<path id="&lt;Path&gt;" class="s1" d="m2651.3 2529.1h-784.2l-211.2-562.8h784.2z"/>
							<path id="&lt;Path&gt;" class="s2" d="m2075 2179.6l-21.8 116.3h134.2z"/>
							<path id="&lt;Path&gt;" class="s9" d="m2615.6 2528.5h-695.8"/>
						</g>
					</g>
					<g id="&lt;Group&gt;">
						<path id="&lt;Path&gt;" class="s7" d="m1800.3 2216.3l-45 4.7c-18.9 1.9-33.6 18.4-32 37.4 1.7 19.3 18.8 33.4 38 31.4l46.1-4.8c21-2.2 35.1-22.5 29.8-43-4.2-16.5-20-27.4-36.9-25.7z"/>
						<path id="&lt;Path&gt;" class="s7" d="m1854.8 2309.6c-4.3-16.5-20-27.4-37-25.7l-70.1 7.8c-19 1.9-32.8 18.9-30.8 37.9 2 18.9 18.9 32.7 37.9 30.8l70.1-7.8c21-2.1 35.2-22.5 29.9-43z"/>
						<path id="&lt;Path&gt;" class="s7" d="m1835.3 2351.5l-65.8 6.9c-18.9 1.9-33.6 18.4-31.9 37.3 1.6 19.3 18.7 33.4 37.9 31.5l66.9-7c21-2.1 35.2-22.5 29.9-43-4.3-16.5-20-27.4-37-25.7z"/>
						<path id="&lt;Path&gt;" class="s7" d="m1889.8 2444.8c-4.3-16.5-20-27.4-37-25.6l-34.6 3.2c-19 2-32.7 18.9-30.8 37.9 2 19 18.9 32.7 37.9 30.8l34.6-3.3c21.1-2.1 35.2-22.5 29.9-43z"/>
					</g>
				</g>
				<g id="&lt;Group&gt;">
					<g id="&lt;Group&gt;">
						<g id="&lt;Group&gt;">
							<g id="&lt;Group&gt;">
								<path id="&lt;Path&gt;" class="s1" d="m1408.8 3112.4l20.2 34.4c32.9 56 84.4 98.7 145.5 120.7l44.6 16 47.8-85.5-101.5-127.1z"/>
								<g id="&lt;Group&gt;">
									<path id="&lt;Path&gt;" class="s7" d="m1389.4 3455l-113.5-113.5 260.9-329.6 162 137.7z"/>
								</g>
							</g>
							<g id="&lt;Group&gt;">
								<path id="&lt;Path&gt;" class="s2" d="m1564.7 3594.4l-717.4-1.1c-8.7 0-15.7-7-15.6-15.7v-34.8c0-8.6 7-15.6 15.7-15.6l717.4 1.1c8.6 0 15.6 7.1 15.6 15.7v34.8c0 8.6-7.1 15.6-15.7 15.6z"/>
								<path id="&lt;Path&gt;" class="s2" d="m1138.1 3594.4l-290.8-1.1c-8.7 0-15.7-7-15.6-15.7v-34.8c0-8.6 7-15.6 15.7-15.6l290.8 1.1c8.6 0 15.6 7.1 15.6 15.7l-0.1 34.8c0 8.6-7 15.6-15.6 15.6z"/>
								<path id="&lt;Path&gt;" class="s1" d="m1565.4 3528.3l-718-1.1c0.1-58.5 38.7-107.9 91.8-124.3 0 0 332.1-140.8 332.1-140.8 0.1-15.9 12.9-28.7 28.8-28.7h82.6c15.9 0.1 28.7 12.9 28.7 28.8l-0.1 76.5c0 10 8.1 18.1 18.1 18.1l9.1 0.1c10 0.1 18.1-8 18.1-18v-0.7c0-8.8 7.1-15.9 15.9-15.9l45.6-0.2c7.8 0 14.5 5.6 15.8 13.4z"/>
								<path id="&lt;Path&gt;" class="s9" d="m1107.6 3406.5l216.3-91.7"/>
								<path id="&lt;Path&gt;" class="s9" d="m1037.8 3376.4c60.6 4.6 108.2 55.2 108.1 117q0 5.5-0.5 10.8"/>
								<path id="&lt;Path&gt;" class="s9" d="m1424.5 3513.7c4-52.5 48-93.8 101.5-93.8q4.8 0.1 9.4 0.5"/>
							</g>
						</g>
						<g id="&lt;Group&gt;">
							<path id="&lt;Path&gt;" class="s2" d="m2200.1 2501.1c-56.8-75.8-164.4-91.2-240.3-34.3-3.9 3-7.6 6.1-11.3 9.3 0 0-539.7 636.3-539.7 636.3l26.6 7.4c79.3 22.1 144.7 78.1 178.8 153l4.9 10.7 546.7-542.1c75.9-56.8 91.2-164.4 34.3-240.3z"/>
						</g>
					</g>
					<g id="&lt;Group&gt;">
						<g id="&lt;Group&gt;">
							<path id="&lt;Path&gt;" class="s0" d="m3003.3 3224.2c64-87.1 46.2-207.8-39.1-277.2-1.5-1.2-10.9-10.6-12.4-11.6 0 0-431.1-456.1-431.1-456.1-76.4-56.1-183.8-39.6-239.9 36.8-56.1 76.4-39.7 183.8 36.7 239.9l407.6 506.7c1.6 1.1 3.3 2.1 4.7 3.4 69.9 68.5 209.5 45.2 273.5-41.9z"/>
							<path id="&lt;Path&gt;" class="s3" d="m3044.4 3097.8c-0.8 3.9-2.7 10.3-2.7 10.3 0 40.6-12.5 80.9-38.4 116.1-29.8 40.6-73.4 66.7-121.3 76.8 0 0-6.8 3.2-9.7 4.4"/>
							<g id="&lt;Group&gt;">
								<path id="&lt;Path&gt;" class="s3" d="m2729.8 3266.1c-1.4-1.3-3.1-2.3-4.7-3.4l-407.6-506.7c-76.4-56.1-92.8-163.5-36.7-239.9 56.1-76.4 163.5-92.9 239.9-36.8 0 0 431.1 456.1 431.1 456.1 1.5 1 10.9 10.4 12.4 11.6 0 0 41.8 37.7 54 65.8"/>
								<path id="&lt;Path&gt;" class="s3" d="m2588.9 3093.4c0 0 3.1 61.2 7.7 108.2"/>
							</g>
						</g>
						<g id="&lt;Group&gt;">
							<g id="&lt;Group&gt;">
								<g id="&lt;Group&gt;">
									<path id="&lt;Path&gt;" class="s1" d="m1763.2 3126l10.1 28.7c25.1 71.1 84.2 124.8 157.4 143l33.7 8.4 62.1-82-184.7-153.2z"/>
									<g id="&lt;Group&gt;">
										<path id="&lt;Path&gt;" class="s7" d="m1743.8 3468.5l-113.5-113.5 260.9-329.6 162 137.8z"/>
									</g>
								</g>
								<g id="&lt;Group&gt;">
									<path id="&lt;Path&gt;" class="s2" d="m1919.1 3608l-717.4-1.1c-8.7 0-15.7-7-15.6-15.7v-34.8c0-8.6 7-15.6 15.7-15.6l717.4 1.1c8.6 0 15.6 7 15.6 15.7v34.8c0 8.6-7.1 15.6-15.7 15.6z"/>
									<path id="&lt;Path&gt;" class="s2" d="m1492.5 3608l-290.8-1.1c-8.7 0-15.7-7-15.6-15.7v-34.8c0-8.6 7-15.6 15.7-15.6l290.8 1.1c8.6 0 15.6 7 15.6 15.7l-0.1 34.8c0 8.6-7 15.6-15.6 15.6z"/>
									<path id="&lt;Path&gt;" class="s1" d="m1919.8 3541.9l-718-1.1c0.1-58.5 38.7-107.9 91.7-124.3 0.1-0.1 332.2-140.8 332.2-140.8 0.1-15.9 12.9-28.8 28.8-28.7h82.6c15.9 0 28.7 12.9 28.7 28.8l-0.1 76.5c0 10 8.1 18.1 18.1 18.1l9.1 0.1c10 0 18.1-8.1 18.1-18v-0.7c0-8.8 7.1-15.9 15.9-16l45.6-0.1c7.8-0.1 14.5 5.6 15.8 13.4z"/>
									<path id="&lt;Path&gt;" class="s9" d="m1201.8 3540.8c0.1-58.5 38.7-107.9 91.7-124.3 0.1-0.1 128.9-54.6 226.1-95.8"/>
									<path id="&lt;Path&gt;" class="s9" d="m1462 3420.1l216.3-91.7"/>
									<path id="&lt;Path&gt;" class="s9" d="m1392.2 3389.9c60.6 4.7 108.2 55.3 108.1 117q0 5.5-0.5 10.9"/>
									<path id="&lt;Path&gt;" class="s9" d="m1778.9 3527.3c4-52.5 48-93.9 101.5-93.8q4.8 0 9.4 0.5"/>
								</g>
							</g>
							<g id="&lt;Group&gt;">
								<path id="&lt;Path&gt;" class="s0" d="m2554.5 2514.7c-56.9-75.8-164.4-91.2-240.3-34.3q-0.5 0.4-1 0.7c-6 4.6-11.4 9.9-16.3 15.7-59.3 69.9-533.7 629.2-533.7 629.2l58.2 24.1c46.4 19.1 85 53.3 109.7 97l33.3 59 555.8-551.1c75.9-56.9 91.2-164.5 34.3-240.3z"/>
								<g id="&lt;Group&gt;">
									<path id="&lt;Path&gt;" class="s3" d="m2520.2 2755l-555.8 551.1-33.3-59c-24.7-43.7-63.3-77.9-109.7-97l-58.2-24.1c0 0 474.4-559.3 533.7-629.2 4.9-5.8 10.3-11.1 16.3-15.7q0.5-0.3 1-0.7c75.9-56.9 183.4-41.5 240.3 34.3l27.6 29.6"/>
								</g>
							</g>
						</g>
					</g>
				</g>
			</g>
		</g>
	</g>
</svg>